# WaveFront *.obj file (generated by Autodesk ATF)

mtllib 82ae9a5c-3f9d-42dd-9e9b-e80623a8de60.mtl

g Body1

v 0.000000 4.000000 0.000000
v 0.000000 0.000000 0.000000
v 0.000000 0.000000 7.750000
v 0.000000 4.000000 7.750000
v 4.000000 4.000000 0.000000
v 4.000000 4.000000 7.750000
v 4.000000 0.000000 0.000000
v 4.000000 0.000000 7.750000
vt -0.000000 0.000000 0.000000
vt 121.920000 0.000000 0.000000
vt -0.000000 236.220000 0.000000
vt 121.920000 236.220000 0.000000
vt 0.000000 0.000000 0.000000
vt 121.920000 0.000000 0.000000
vt 0.000000 236.220000 0.000000
vt 121.920000 236.220000 0.000000
vt 0.000000 0.000000 0.000000
vt 121.920004 0.000000 0.000000
vt 0.000000 236.220000 0.000000
vt 121.920004 236.220000 0.000000
vt 0.000000 0.000000 0.000000
vt 121.920000 0.000000 0.000000
vt 0.000000 236.220000 0.000000
vt 121.920000 236.220000 0.000000
vt -60.960000 -60.960002 0.000000
vt 60.960000 -60.960002 0.000000
vt -60.960000 60.959998 0.000000
vt 60.960000 60.960002 0.000000
vt 60.960000 -60.960002 0.000000
vt 60.960000 60.959998 0.000000
vt -60.960000 -60.960002 0.000000
vt -60.960000 60.960002 0.000000
vn -30.480000 0.000000 0.000000
vn -30.480000 0.000000 0.000000
vn -30.480000 0.000000 0.000000
vn -30.480000 0.000000 0.000000
vn -0.000001 30.480000 0.000000
vn -0.000001 30.480000 0.000000
vn -0.000001 30.480000 0.000000
vn -0.000001 30.480000 0.000000
vn 30.480000 0.000000 0.000000
vn 30.480000 0.000000 0.000000
vn 30.480000 0.000000 0.000000
vn 30.480000 0.000000 0.000000
vn 0.000000 -30.480000 0.000000
vn 0.000000 -30.480000 0.000000
vn 0.000000 -30.480000 0.000000
vn 0.000000 -30.480000 0.000000
vn 0.000000 0.000000 30.480000
vn 0.000000 0.000000 30.480000
vn 0.000000 0.000000 30.480000
vn 0.000000 0.000000 30.480000
vn -0.000000 0.000000 -30.480000
vn -0.000000 0.000000 -30.480000
vn -0.000000 0.000000 -30.480000
vn -0.000000 0.000000 -30.480000
usemtl Steel_-_Satin
f 1/1/1 2/2/2 4/3/3
f 4/3/3 2/2/2 3/4/4
f 5/5/5 1/6/6 6/7/7
f 6/7/7 1/6/6 4/8/8
f 7/9/9 5/10/10 8/11/11
f 8/11/11 5/10/10 6/12/12
f 2/13/13 7/14/14 3/15/15
f 3/15/15 7/14/14 8/16/16
f 3/17/17 8/18/18 4/19/19
f 4/19/19 8/18/18 6/20/20
f 2/21/21 1/22/22 7/23/23
f 7/23/23 1/22/22 5/24/24

# 8 vertices
# 24 texture params
# 24 normals
# 12 facets

# 1 groups
