# Blender v2.80 (sub 74) OBJ File: '195test.blend'
# www.blender.org
mtllib TiffanyTruongmodel.mtl
o Cube
v 0.149689 -0.142128 0.215345
v 0.149689 0.142128 0.215345
v 0.149689 -0.142128 -0.215345
v 0.149689 0.142128 -0.215345
v -0.165000 -0.165000 0.250000
v -0.165000 0.165000 0.250000
v -0.165000 -0.165000 -0.250000
v -0.165000 0.165000 -0.250000
v 0.165000 -0.165000 0.250000
v 0.165000 0.165000 0.250000
v 0.165000 -0.165000 -0.250000
v 0.165000 0.165000 -0.250000
v -0.165000 -0.142128 0.215345
v -0.165000 -0.142128 -0.215345
v -0.165000 0.142128 0.215345
v -0.165000 0.142128 -0.215345
vt 0.375000 0.500000
vt 0.375000 0.750000
vt 0.625000 0.750000
vt 0.625000 0.500000
vt 0.375000 0.939585
vt 0.625000 0.939585
vt 0.814585 0.750000
vt 0.814585 0.500000
vt 0.375000 0.000000
vt 0.625000 0.000000
vt 0.607673 0.017327
vt 0.392327 0.017327
vt 0.392327 0.232673
vt 0.375000 0.250000
vt 0.625000 0.250000
vt 0.625000 0.500000
vt 0.375000 0.500000
vt 0.625000 0.750000
vt 0.375000 0.750000
vt 0.625000 1.000000
vt 0.375000 1.000000
vt 0.125000 0.500000
vt 0.125000 0.750000
vt 0.875000 0.500000
vt 0.875000 0.750000
vt 0.375000 0.310415
vt 0.625000 0.310415
vt 0.607673 0.232673
vt 0.185415 0.750000
vt 0.185415 0.500000
vn -1.0000 0.0000 0.0000
vn 0.0000 0.0000 -1.0000
vn 0.0000 -1.0000 0.0000
vn 1.0000 0.0000 0.0000
vn 0.0000 0.0000 1.0000
vn 0.0000 1.0000 0.0000
usemtl None
s off
f 3/1/1 1/2/1 2/3/1 4/4/1
f 1/2/2 13/5/2 15/6/2 2/3/2
f 4/4/3 2/3/3 15/7/3 16/8/3
f 5/9/1 6/10/1 15/11/1 13/12/1 14/13/1 7/14/1
f 7/14/2 8/15/2 12/16/2 11/17/2
f 11/17/4 12/16/4 10/18/4 9/19/4
f 9/19/5 10/18/5 6/20/5 5/21/5
f 7/22/3 11/17/3 9/19/3 5/23/3
f 12/16/6 8/24/6 6/25/6 10/18/6
f 14/26/5 3/1/5 4/4/5 16/27/5
f 7/14/1 14/13/1 16/28/1 15/11/1 6/10/1 8/15/1
f 13/29/6 1/2/6 3/1/6 14/30/6
o Cube.001
v 0.039181 -0.144097 0.215345
v 0.039181 0.050736 0.215345
v 0.039181 -0.144097 -0.215345
v 0.039181 0.050736 -0.215345
v 0.046637 -0.144097 0.215345
v 0.046637 0.050736 0.215345
v 0.046637 -0.144097 -0.215345
v 0.046637 0.050736 -0.215345
vt 0.375000 0.000000
vt 0.625000 0.000000
vt 0.625000 0.250000
vt 0.375000 0.250000
vt 0.625000 0.500000
vt 0.375000 0.500000
vt 0.625000 0.750000
vt 0.375000 0.750000
vt 0.625000 1.000000
vt 0.375000 1.000000
vt 0.125000 0.500000
vt 0.125000 0.750000
vt 0.875000 0.500000
vt 0.875000 0.750000
vn -1.0000 0.0000 0.0000
vn 0.0000 0.0000 -1.0000
vn 1.0000 0.0000 0.0000
vn 0.0000 0.0000 1.0000
vn 0.0000 -1.0000 0.0000
vn 0.0000 1.0000 0.0000
usemtl None
s off
f 17/31/7 18/32/7 20/33/7 19/34/7
f 19/34/8 20/33/8 24/35/8 23/36/8
f 23/36/9 24/35/9 22/37/9 21/38/9
f 21/38/10 22/37/10 18/39/10 17/40/10
f 19/41/11 23/36/11 21/38/11 17/42/11
f 24/35/12 20/43/12 18/44/12 22/37/12
o Cube.002
v -0.041698 -0.144097 0.215345
v -0.041698 0.050736 0.215345
v -0.041698 -0.144097 -0.215345
v -0.041698 0.050736 -0.215345
v -0.034242 -0.144097 0.215345
v -0.034242 0.050736 0.215345
v -0.034242 -0.144097 -0.215345
v -0.034242 0.050736 -0.215345
vt 0.375000 0.000000
vt 0.625000 0.000000
vt 0.625000 0.250000
vt 0.375000 0.250000
vt 0.625000 0.500000
vt 0.375000 0.500000
vt 0.625000 0.750000
vt 0.375000 0.750000
vt 0.625000 1.000000
vt 0.375000 1.000000
vt 0.125000 0.500000
vt 0.125000 0.750000
vt 0.875000 0.500000
vt 0.875000 0.750000
vn -1.0000 0.0000 0.0000
vn 0.0000 0.0000 -1.0000
vn 1.0000 0.0000 0.0000
vn 0.0000 0.0000 1.0000
vn 0.0000 -1.0000 0.0000
vn 0.0000 1.0000 0.0000
usemtl None
s off
f 25/45/13 26/46/13 28/47/13 27/48/13
f 27/48/14 28/47/14 32/49/14 31/50/14
f 31/50/15 32/49/15 30/51/15 29/52/15
f 29/52/16 30/51/16 26/53/16 25/54/16
f 27/55/17 31/50/17 29/52/17 25/56/17
f 32/49/18 28/57/18 26/58/18 30/51/18
o Cube.003
v -0.123393 -0.144097 0.215345
v -0.123393 0.050736 0.215345
v -0.123393 -0.144097 -0.215345
v -0.123393 0.050736 -0.215345
v -0.115937 -0.144097 0.215345
v -0.115937 0.050736 0.215345
v -0.115937 -0.144097 -0.215345
v -0.115937 0.050736 -0.215345
vt 0.375000 0.000000
vt 0.625000 0.000000
vt 0.625000 0.250000
vt 0.375000 0.250000
vt 0.625000 0.500000
vt 0.375000 0.500000
vt 0.625000 0.750000
vt 0.375000 0.750000
vt 0.625000 1.000000
vt 0.375000 1.000000
vt 0.125000 0.500000
vt 0.125000 0.750000
vt 0.875000 0.500000
vt 0.875000 0.750000
vn -1.0000 0.0000 0.0000
vn 0.0000 0.0000 -1.0000
vn 1.0000 0.0000 0.0000
vn 0.0000 0.0000 1.0000
vn 0.0000 -1.0000 0.0000
vn 0.0000 1.0000 0.0000
usemtl None
s off
f 33/59/19 34/60/19 36/61/19 35/62/19
f 35/62/20 36/61/20 40/63/20 39/64/20
f 39/64/21 40/63/21 38/65/21 37/66/21
f 37/66/22 38/65/22 34/67/22 33/68/22
f 35/69/23 39/64/23 37/66/23 33/70/23
f 40/63/24 36/71/24 34/72/24 38/65/24
